<svg id="Layer_1" data-name="Layer 1" xmlns="http://www.w3.org/2000/svg" viewBox="0 0 310.42 158.16">
  <text transform="translate(-339.6 -362.98)" font-size="42" fill="#312783" font-family="Impact">Find us on<tspan x="0" y="43">Faceook</tspan></text>
  <g>
    <polygon points="219.31 114.01 219.31 57.63 164.89 57.63 164.89 114.01 40.93 114.01 40.93 123.62 292.46 123.62 292.46 114.01 219.31 114.01" fill="#ed6e24"/>
    <g>
      <path d="M159.71,100.7a6.66,6.66,0,0,1-2.68,5.83q-3.12,2.18-10.54,2.18-7.05,0-10.32-2.58a5.72,5.72,0,0,1-2.45-4.69V94.69H144v6a1.14,1.14,0,0,0,.65,1,3.13,3.13,0,0,0,1.58.37,3,3,0,0,0,1.61-.34,1.16,1.16,0,0,0,.54-1V96.78a3.6,3.6,0,0,0-1-2.65c-1.74-1.37-5.13-2.89-7.12-4.54-3.28-2.66-5.12-4.19-5.52-4.57-1.21-1.4-1.09-3.32-1.09-4.81V75.69A6.27,6.27,0,0,1,136.54,70q3.27-2.11,10.39-2.12,6.16,0,9.21,2.12a5.78,5.78,0,0,1,2.6,5v6.18H148.42V75.57a1,1,0,0,0-.5-.89,2.3,2.3,0,0,0-1.28-.32,2.59,2.59,0,0,0-1.39.29,1,1,0,0,0-.47.92v2.67c0,1.31.75,2.57,2.24,3.8l5.9,4.64a49.19,49.19,0,0,1,4.62,4,7.25,7.25,0,0,1,2.17,4.92Z" fill="#1d1d1b"/>
      <path d="M250.13,100.7a6.65,6.65,0,0,1-2.67,5.83q-3.12,2.18-10.55,2.18-7,0-10.32-2.58a5.72,5.72,0,0,1-2.45-4.69V94.69h10.32v6a1.13,1.13,0,0,0,.66,1,3.09,3.09,0,0,0,1.57.37,3.05,3.05,0,0,0,1.62-.34,1.17,1.17,0,0,0,.53-1V96.78a3.6,3.6,0,0,0-1-2.65c-1.74-1.37-5.12-2.89-7.11-4.54-3.29-2.66-5.13-4.19-5.53-4.57-1.21-1.4-1.09-3.32-1.09-4.81V75.69A6.27,6.27,0,0,1,227,70q3.27-2.11,10.4-2.12,6.16,0,9.21,2.12a5.77,5.77,0,0,1,2.59,5v6.18H238.84V75.57a1,1,0,0,0-.5-.89,2.27,2.27,0,0,0-1.28-.32,2.59,2.59,0,0,0-1.39.29,1,1,0,0,0-.46.92v2.67c0,1.31.74,2.57,2.24,3.8l5.89,4.64a48.41,48.41,0,0,1,4.63,4,7.23,7.23,0,0,1,2.16,4.92Z" fill="#1d1d1b"/>
      <polygon points="194.71 67.91 194.71 83.32 190.32 83.32 190.32 67.91 177.81 67.91 177.81 108.41 190.32 108.41 190.32 91.75 194.71 91.75 194.71 108.41 207.23 108.41 207.23 67.91 194.71 67.91" fill="#1d1d1b"/>
    </g>
    <path d="M23.48,104.19l-12.38-1a176.35,176.35,0,0,1,5.65-30.68C23,50.11,32.53,35.13,45,28a64.91,64.91,0,0,1,40.45-7.7A67.23,67.23,0,0,1,104,25.24l.21.1.19.11c9,5,35.23,18.2,49.24,19.15,8.67.59,18,.89,27.9-2.37,12.11-4,22.82-12.44,32.75-25.88l10,7.39a96.94,96.94,0,0,1-19.44,20.05A67.76,67.76,0,0,1,185.43,54c-13.07,4.29-25.3,3.46-32.61,3C133.81,55.7,102,38.3,98.6,36.42A56.66,56.66,0,0,0,83.51,32.6a51.82,51.82,0,0,0-32.35,6.23C41.75,44.17,34,57,28.71,75.9A166,166,0,0,0,23.48,104.19Z" fill="#ed6e24"/>
    <path d="M34,104.26l-12.37-1.08a179.06,179.06,0,0,1,5.83-30.35c6.34-22.23,15.73-37.27,27.93-44.7,13-7.93,28.62-10,45.17-5.89A78.84,78.84,0,0,1,121.3,30.6c2.56,1.25,26.69,12.91,42.87,14,8.67.59,18,.89,27.9-2.37,12.1-4,22.82-12.44,32.75-25.88l10,7.39a96.72,96.72,0,0,1-19.45,20.05A67.58,67.58,0,0,1,195.94,54c-13.07,4.29-25.3,3.46-32.61,3-19.52-1.32-46.67-14.83-47.82-15.4l-.27-.14-.26-.16a66.4,66.4,0,0,0-17.77-7.08C83.9,31,72,32.54,61.83,38.73c-9.31,5.67-17.07,18.64-22.44,37.5A168.77,168.77,0,0,0,34,104.26Z" fill="#1d1d1b"/>
    <circle cx="85.36" cy="74.65" r="22.2" fill="#1d1d1b"/>
    <g>
      <path d="M42.48,140.89a2,2,0,0,0,.39,1,2.24,2.24,0,0,0,1.81.63,3.92,3.92,0,0,0,1.25-.17,1.19,1.19,0,0,0,.91-1.18.88.88,0,0,0-.45-.78A4.67,4.67,0,0,0,45,140l-1.1-.25a6.49,6.49,0,0,1-2.24-.78,2.47,2.47,0,0,1-1-2.2,2.93,2.93,0,0,1,1-2.27,4.31,4.31,0,0,1,3-.9,4.55,4.55,0,0,1,2.78.85,3.07,3.07,0,0,1,1.2,2.48h-2a1.46,1.46,0,0,0-.82-1.31,2.82,2.82,0,0,0-1.27-.25,2.39,2.39,0,0,0-1.34.33,1,1,0,0,0-.51.92.88.88,0,0,0,.5.82,6,6,0,0,0,1.35.42l1.79.42A4.47,4.47,0,0,1,48,139a2.49,2.49,0,0,1,.91,2.07,2.93,2.93,0,0,1-1.08,2.32,4.59,4.59,0,0,1-3.05.92,5,5,0,0,1-3.16-.91,3,3,0,0,1-1.15-2.49Z" fill="#1d1d1b"/>
      <path d="M52.19,133.86h2.16v6.24a3.62,3.62,0,0,0,.24,1.53,1.65,1.65,0,0,0,1.68.86,1.63,1.63,0,0,0,1.67-.86,3.44,3.44,0,0,0,.25-1.53v-6.24h2.16v6.25a5.16,5.16,0,0,1-.5,2.52c-.62,1.11-1.82,1.66-3.58,1.66s-3-.55-3.58-1.66a5.16,5.16,0,0,1-.5-2.52Z" fill="#1d1d1b"/>
      <path d="M65.74,140.89a2,2,0,0,0,.39,1,2.24,2.24,0,0,0,1.81.63,3.92,3.92,0,0,0,1.25-.17,1.18,1.18,0,0,0,.9-1.18.87.87,0,0,0-.44-.78,4.67,4.67,0,0,0-1.41-.47l-1.11-.25a6.5,6.5,0,0,1-2.23-.78,2.48,2.48,0,0,1-1-2.2,2.94,2.94,0,0,1,1-2.27,4.31,4.31,0,0,1,3-.9,4.5,4.5,0,0,1,2.77.85,3,3,0,0,1,1.21,2.48h-2a1.46,1.46,0,0,0-.82-1.31,2.85,2.85,0,0,0-1.27-.25,2.45,2.45,0,0,0-1.35.33,1.05,1.05,0,0,0-.5.92.88.88,0,0,0,.5.82,6,6,0,0,0,1.35.42l1.78.42a4.4,4.4,0,0,1,1.76.74,2.46,2.46,0,0,1,.91,2.07,2.92,2.92,0,0,1-1.07,2.32,4.59,4.59,0,0,1-3,.92,5,5,0,0,1-3.16-.91,3,3,0,0,1-1.15-2.49Z" fill="#1d1d1b"/>
      <path d="M77,140.89a2,2,0,0,0,.39,1,2.24,2.24,0,0,0,1.81.63,3.86,3.86,0,0,0,1.24-.17,1.18,1.18,0,0,0,.91-1.18.89.89,0,0,0-.44-.78,4.67,4.67,0,0,0-1.41-.47l-1.11-.25a6.5,6.5,0,0,1-2.23-.78,2.48,2.48,0,0,1-1-2.2,2.94,2.94,0,0,1,1-2.27,4.31,4.31,0,0,1,3-.9,4.5,4.5,0,0,1,2.77.85,3,3,0,0,1,1.21,2.48H81a1.47,1.47,0,0,0-.83-1.31,2.77,2.77,0,0,0-1.26-.25,2.45,2.45,0,0,0-1.35.33,1.05,1.05,0,0,0-.5.92.88.88,0,0,0,.5.82,6,6,0,0,0,1.35.42l1.78.42a4.4,4.4,0,0,1,1.76.74,2.46,2.46,0,0,1,.91,2.07,3,3,0,0,1-1.07,2.32,4.59,4.59,0,0,1-3,.92,5,5,0,0,1-3.16-.91A3,3,0,0,1,75,140.89Z" fill="#1d1d1b"/>
      <path d="M94.21,135.66H88.82v2.16h5v1.76h-5v2.62h5.64V144H86.75V133.86h7.46Z" fill="#1d1d1b"/>
      <path d="M99.55,144H97.08l3.27-5.18-3.11-5h2.54l1.81,3.31,1.87-3.31h2.45l-3.11,4.9,3.31,5.27h-2.58l-1.94-3.47Z" fill="#1d1d1b"/>
      <path d="M114.89,144V133.86H117v3.87h4v-3.87h2.12V144H121v-4.54h-4V144Z" fill="#1d1d1b"/>
      <path d="M134.75,143.12a5.25,5.25,0,0,1-6.66,0,5.45,5.45,0,0,1-1.55-4.19,5.37,5.37,0,0,1,1.55-4.2,5.29,5.29,0,0,1,6.66,0,5.4,5.4,0,0,1,1.54,4.2A5.48,5.48,0,0,1,134.75,143.12Zm-1.32-1.54a5.11,5.11,0,0,0,0-5.3,2.45,2.45,0,0,0-2-.93,2.48,2.48,0,0,0-2,.93,5.06,5.06,0,0,0,0,5.3,2.48,2.48,0,0,0,2,.93A2.45,2.45,0,0,0,133.43,141.58Z" fill="#1d1d1b"/>
      <path d="M146.48,133.86h3.05V144h-2v-6.88c0-.2,0-.48,0-.83s0-.63,0-.83L145.64,144h-2.07l-1.91-8.54c0,.2,0,.47,0,.83V144h-2V133.86h3.09l1.86,8Z" fill="#1d1d1b"/>
      <path d="M160.84,135.66h-5.39v2.16h4.94v1.76h-4.94v2.62h5.63V144h-7.71V133.86h7.47Z" fill="#1d1d1b"/>
      <path d="M164.55,133.86h2.13v8.34h5.08V144h-7.21Z" fill="#1d1d1b"/>
      <path d="M182.52,135.66h-5.38v2.16h4.94v1.76h-4.94v2.62h5.63V144h-7.71V133.86h7.46Z" fill="#1d1d1b"/>
      <path d="M187.77,140.89a2,2,0,0,0,.39,1,2.24,2.24,0,0,0,1.81.63,3.86,3.86,0,0,0,1.24-.17,1.18,1.18,0,0,0,.91-1.18.87.87,0,0,0-.44-.78,4.67,4.67,0,0,0-1.41-.47l-1.11-.25a6.5,6.5,0,0,1-2.23-.78,2.48,2.48,0,0,1-1-2.2,2.94,2.94,0,0,1,1-2.27,4.31,4.31,0,0,1,3-.9,4.5,4.5,0,0,1,2.77.85,3,3,0,0,1,1.21,2.48h-2a1.48,1.48,0,0,0-.82-1.31,2.85,2.85,0,0,0-1.27-.25,2.45,2.45,0,0,0-1.35.33,1.05,1.05,0,0,0-.5.92.88.88,0,0,0,.5.82,6,6,0,0,0,1.35.42l1.78.42a4.4,4.4,0,0,1,1.76.74,2.46,2.46,0,0,1,.91,2.07,3,3,0,0,1-1.07,2.32,4.59,4.59,0,0,1-3,.92,5,5,0,0,1-3.16-.91,3,3,0,0,1-1.15-2.49Z" fill="#1d1d1b"/>
      <path d="M199,140.89a2,2,0,0,0,.38,1,2.28,2.28,0,0,0,1.82.63,3.86,3.86,0,0,0,1.24-.17,1.18,1.18,0,0,0,.91-1.18.89.89,0,0,0-.44-.78,4.65,4.65,0,0,0-1.42-.47l-1.1-.25a6.5,6.5,0,0,1-2.23-.78,2.48,2.48,0,0,1-1-2.2,2.94,2.94,0,0,1,1-2.27,4.31,4.31,0,0,1,3-.9,4.5,4.5,0,0,1,2.77.85,3,3,0,0,1,1.21,2.48h-2a1.47,1.47,0,0,0-.83-1.31,2.8,2.8,0,0,0-1.26-.25,2.45,2.45,0,0,0-1.35.33,1.05,1.05,0,0,0-.5.92.88.88,0,0,0,.5.82,6,6,0,0,0,1.35.42l1.78.42a4.4,4.4,0,0,1,1.76.74,2.46,2.46,0,0,1,.91,2.07,2.93,2.93,0,0,1-1.08,2.32,4.54,4.54,0,0,1-3,.92,5,5,0,0,1-3.16-.91,3,3,0,0,1-1.15-2.49Z" fill="#1d1d1b"/>
      <path d="M216,140.89a2.14,2.14,0,0,0,.39,1,2.25,2.25,0,0,0,1.81.63,3.92,3.92,0,0,0,1.25-.17,1.18,1.18,0,0,0,.91-1.18.88.88,0,0,0-.45-.78,4.47,4.47,0,0,0-1.41-.47l-1.1-.25a6.42,6.42,0,0,1-2.23-.78,2.46,2.46,0,0,1-1-2.2,2.91,2.91,0,0,1,1-2.27,4.28,4.28,0,0,1,3-.9,4.53,4.53,0,0,1,2.78.85,3,3,0,0,1,1.21,2.48h-2a1.46,1.46,0,0,0-.82-1.31,2.82,2.82,0,0,0-1.27-.25,2.39,2.39,0,0,0-1.34.33,1,1,0,0,0-.5.92.87.87,0,0,0,.49.82,6.2,6.2,0,0,0,1.35.42l1.79.42a4.47,4.47,0,0,1,1.76.74,2.46,2.46,0,0,1,.91,2.07,2.93,2.93,0,0,1-1.08,2.32,4.56,4.56,0,0,1-3,.92,4.93,4.93,0,0,1-3.16-.91,3,3,0,0,1-1.16-2.49Z" fill="#1d1d1b"/>
      <path d="M225.69,133.86h2.16v6.24a3.44,3.44,0,0,0,.25,1.53,2.06,2.06,0,0,0,3.35,0,3.59,3.59,0,0,0,.25-1.53v-6.24h2.16v6.25a5.15,5.15,0,0,1-.51,2.52c-.62,1.11-1.81,1.66-3.57,1.66s-3-.55-3.59-1.66a5.28,5.28,0,0,1-.5-2.52Z" fill="#1d1d1b"/>
      <path d="M244.54,139.62a3.88,3.88,0,0,1-2.55.75h-2.12V144h-2.11V133.86h4.37a3.56,3.56,0,0,1,2.41.78,3.93,3.93,0,0,1,0,5ZM242.92,136a1.75,1.75,0,0,0-1.13-.34h-1.92v3h1.92a1.6,1.6,0,0,0,1.13-.37,1.48,1.48,0,0,0,.4-1.16A1.4,1.4,0,0,0,242.92,136Z" fill="#1d1d1b"/>
      <path d="M255.78,139.62a3.88,3.88,0,0,1-2.55.75h-2.12V144H249V133.86h4.37a3.52,3.52,0,0,1,2.4.78,3.08,3.08,0,0,1,.9,2.44A3.12,3.12,0,0,1,255.78,139.62ZM254.16,136a1.75,1.75,0,0,0-1.13-.34h-1.92v3H253a1.6,1.6,0,0,0,1.13-.37,1.48,1.48,0,0,0,.4-1.16A1.4,1.4,0,0,0,254.16,136Z" fill="#1d1d1b"/>
      <path d="M268,143.12a5.27,5.27,0,0,1-6.67,0,5.48,5.48,0,0,1-1.54-4.19,5.4,5.4,0,0,1,1.54-4.2,5.3,5.3,0,0,1,6.67,0,5.4,5.4,0,0,1,1.54,4.2A5.48,5.48,0,0,1,268,143.12Zm-1.33-1.54a5.06,5.06,0,0,0,0-5.3,2.42,2.42,0,0,0-2-.93,2.47,2.47,0,0,0-2,.93,5.06,5.06,0,0,0,0,5.3,2.47,2.47,0,0,0,2,.93A2.42,2.42,0,0,0,266.69,141.58Z" fill="#1d1d1b"/>
      <path d="M279.51,134.12a2.51,2.51,0,0,1,1,.71,3.37,3.37,0,0,1,.51.86,2.9,2.9,0,0,1,.19,1.06,3,3,0,0,1-.37,1.43,2,2,0,0,1-1.21,1,1.92,1.92,0,0,1,1,.8,3.31,3.31,0,0,1,.29,1.59v.69a4.74,4.74,0,0,0,.06.94.87.87,0,0,0,.39.58V144H279c-.07-.23-.11-.41-.14-.55a4.24,4.24,0,0,1-.09-.88l0-.94a1.92,1.92,0,0,0-.33-1.3,1.76,1.76,0,0,0-1.21-.32h-2.08v4H273V133.86h4.87A4.35,4.35,0,0,1,279.51,134.12Zm-4.39,1.5v2.74h2.29a2.44,2.44,0,0,0,1-.17A1.15,1.15,0,0,0,279,137a1.28,1.28,0,0,0-.58-1.24,2.11,2.11,0,0,0-1-.18Z" fill="#1d1d1b"/>
      <path d="M292.41,133.86v1.8h-3.05V144h-2.14v-8.37h-3.06v-1.8Z" fill="#1d1d1b"/>
    </g>
  </g>
</svg>
